<?xml version="1.0" encoding="utf-8"?>
<!-- Generator: Adobe Illustrator 18.0.0, SVG Export Plug-In . SVG Version: 6.00 Build 0)  -->
<!DOCTYPE svg PUBLIC "-//W3C//DTD SVG 1.1//EN" "http://www.w3.org/Graphics/SVG/1.1/DTD/svg11.dtd">
<svg version="1.1" id="Layer_1" xmlns="http://www.w3.org/2000/svg" xmlns:xlink="http://www.w3.org/1999/xlink" x="0px" y="0px"
	 viewBox="0 0 260 80" enable-background="new 0 0 260 80" xml:space="preserve">
<g>
	<g>
		<g>
			<g>
				<path fill="#31A3D8" d="M23,62.8c0,0,3.9,3.9,13.5-1.3c6.3-3.4,10.2-8.9,13.6-10.7c0,3.4,2.9,9,11.7,9.4c0,0-12.4,10.3-22,9.6
					C26.1,68.9,23,62.8,23,62.8z"/>
				<path fill="#31A3D8" d="M13.7,51.3c0,0,1.1,1.5,7.7-0.1c4.9-1.2,9.1-2.9,12.2-5.6c0.7,5.7,5.6,7,5.6,7s1.2,0.2,0,1.6
					c-1.2,1.4-7.8,6.6-12.1,7.4c-4.3,0.8-6.5-0.4-8.4-1.5C16.8,58.9,12.6,53.7,13.7,51.3z"/>
			</g>
		</g>
		<path fill="#31A3D8" d="M190,52.9l-10.9,0c-0.6,0-0.8,0.3-0.8,0.8l0,14.7c0,0.5,0.3,0.8,0.7,0.8l5.5,0l5.5,0
			c0.4,0,0.7-0.3,0.7-0.7c0-0.8,0-1.6,0-2.4l0-0.5c0-0.3-0.1-0.5-0.4-0.6c-0.2-0.1-0.3-0.1-0.4-0.1c-1.6,0-3.2,0-4.8,0l-2,0
			c-0.1,0-0.2,0-0.2,0c-0.2,0-0.2-0.1-0.2-0.2c0-0.4,0-0.8,0-1.2c0-0.1,0.1-0.2,0.2-0.2c0.1,0,0.1,0,0.2,0l5.5,0
			c0.6,0,0.8-0.2,0.8-0.8V60c0-0.6-0.3-0.8-0.8-0.8l-5.5,0c-0.3,0-0.3-0.1-0.3-0.3c0-0.3,0-0.6,0-0.8l0-0.4c0-0.4,0-0.4,0.4-0.4
			l6.9,0c0.6,0,0.8-0.3,0.8-0.8c0-0.9,0-1.8,0-2.7C190.8,53.2,190.5,52.9,190,52.9z M183.1,63.1L183.1,63.1L183.1,63.1L183.1,63.1z"
			/>
		<path fill="#31A3D8" d="M174.1,66.8l-0.7-1c-0.3-0.4-0.6-0.8-0.9-1.3c-0.1-0.1-0.1-0.2-0.1-0.2c0-0.1,0.1-0.1,0.2-0.2l0.1-0.1
			c1.1-0.7,1.9-1.7,2.3-2.9c0.4-1.3,0.5-2.7,0.2-4.1c-0.3-1.2-0.9-2.2-1.7-2.9c-1-0.9-2.3-1.3-3.8-1.4c-1.4,0-2.9,0-4.1,0l-2.8,0
			l-0.8,0c-0.6,0-0.8,0.2-0.8,0.8l0,14.9c0,0.5,0.3,0.8,0.7,0.8c1,0,2,0,3,0c0.4,0,0.7-0.3,0.7-0.7c0-0.1,0-0.2,0-0.3l0-2.9
			c0-0.3,0.1-0.4,0.4-0.4l0.6,0c0.1,0,0.3,0,0.4,0l0,0c0.3,0,0.5,0.1,0.7,0.4c0.4,0.6,0.9,1.2,1.3,1.9c0.3,0.5,0.7,1,1,1.5
			c0.3,0.4,0.7,0.6,1.1,0.6h0c0.5,0,1,0,1.5,0h0.7c0.5,0,1,0,1.5,0c0.1,0,0.4-0.1,0.5-0.2c0.1-0.2,0-0.4-0.1-0.5
			C174.9,67.9,174.5,67.3,174.1,66.8z M169.5,60.8c-1,0-1.9,0-2.9,0l-0.7,0c-0.2,0-0.3-0.1-0.3-0.3c0-1.1,0-2.3,0-3.4
			c0-0.2,0.1-0.3,0.3-0.3l0.7,0l0.9,0l0.9,0c0.2,0,0.4,0,0.6,0c0.3,0,0.5,0.1,0.8,0.1c0.6,0.2,1,0.6,1.1,1.2
			c0.2,0.8,0.1,1.4-0.3,1.9C170.5,60.5,170,60.8,169.5,60.8z M171.3,69.1L171.3,69.1L171.3,69.1L171.3,69.1z"/>
		<path fill="#31A3D8" d="M242,52.9l-0.5,0l-0.8,0l-1,0c-0.2,0-0.4,0-0.6,0c-0.5,0-0.8,0.3-0.8,0.8v1.3c0,1.3,0,2.5,0,3.8
			c0,0.3-0.1,0.3-0.2,0.3c-1.9,0-3.7,0-5.6,0c-0.2,0-0.2-0.1-0.2-0.2c0-0.1,0-0.1,0-0.2l0-2.1c0-1,0-2,0-2.9c0-0.5-0.3-0.8-0.7-0.8
			c-1,0-1.9,0-2.9,0c-0.5,0-0.8,0.3-0.8,0.8c0,4.9,0,9.8,0,14.7c0,0.5,0.3,0.8,0.8,0.8l1.4,0l1.4,0c0.6,0,0.8-0.2,0.8-0.8l0-4.7
			c0-0.4,0.1-0.4,0.4-0.4l2.2,0l3.1,0c0.3,0,0.4,0,0.4,0.4l0,4.7c0,0.6,0.3,0.8,0.8,0.8h2.8c0.6,0,0.8-0.2,0.8-0.8V53.8
			C242.9,53.2,242.6,52.9,242,52.9z"/>
		<path fill="#31A3D8" d="M158.3,52.8c-0.1,0-0.3,0-0.4,0c-1.3,0-2.6,0-3.9,0l-6.3,0l-2.8,0c-0.6,0-0.8,0.3-0.8,0.8
			c0,0.9,0,1.8,0,2.8c0,0.6,0.3,0.8,0.8,0.8l3.8,0c0.1,0,0.2,0,0.2,0c0.1,0,0.2,0.1,0.2,0.2c0,0.1,0,0.2,0,0.3l0,10.9
			c0,0.6,0.3,0.8,0.8,0.8h0.9h1.9c0.6,0,0.9-0.2,0.9-0.9V57.6c0-0.4,0.1-0.5,0.4-0.5l2.2,0l1.7,0c0.5,0,0.8-0.3,0.8-0.7
			c0-1,0-1.9,0-2.9C158.8,53.2,158.6,52.9,158.3,52.8z"/>
		<path fill="#31A3D8" d="M121.4,53.9c-1.8-1.1-3.7-1.6-5.8-1.3c-1.6,0.2-3,0.8-4.2,1.8c-1.6,1.4-2.6,3.1-3,5.1
			c-0.2,1.3-0.1,2.6,0.3,3.8c0.5,1.4,1.3,2.7,2.4,3.7c1.6,1.4,3.5,2.1,5.8,2.2h0l0,0c0.1,0,0.2,0,0.3,0c0.3,0,0.7,0,1-0.1
			c2.2-0.4,3.9-1.5,5.2-3.2c1.8-2.4,2.2-5,1.2-7.8C124.1,56.3,123,54.9,121.4,53.9z M116.7,56.6l0,0.2c2.3,0,4.1,1.8,4.1,4.1
			c0,2.3-1.8,4.1-4.1,4.1c-1.1,0-2.1-0.4-2.9-1.2c-0.8-0.8-1.2-1.8-1.2-2.9c0-2.3,1.8-4.1,4.1-4.1V56.6L116.7,56.6z"/>
		<path fill="#31A3D8" d="M142.1,58.1L142.1,58.1l0-4.5c0-0.6-0.2-0.8-0.8-0.8l-1.3,0l-1.4,0c-0.6,0-0.8,0.2-0.8,0.8l0,2.1
			c0,1.8,0,3.7,0,5.5c0,0.4,0,0.9-0.1,1.4c-0.2,1.1-0.7,1.8-1.6,2.1c-0.6,0.2-1.3,0.3-2,0.2c-1-0.2-1.7-0.6-2-1.5
			c-0.3-0.7-0.3-1.4-0.3-2c0-2.6,0-5.2,0-7.8c0-0.3-0.1-0.5-0.2-0.6c-0.1-0.1-0.3-0.2-0.6-0.2h0c-0.4,0-0.8,0-1.1,0l-1.6,0
			c-0.6,0-0.9,0.2-0.9,0.9l0,2c0,2,0,4,0,6c0,0.6,0.1,1.2,0.2,1.8c0.2,1.1,0.6,2.2,1.3,3.1c1.2,1.5,2.9,2.4,5.1,2.6
			c0.3,0,0.5,0,0.8,0c0.7,0,1.5-0.1,2.2-0.3c1.3-0.3,2.4-1,3.3-1.9c1.2-1.3,1.8-2.9,1.8-4.9c0-1,0-1.9,0-2.9
			C142.1,58.9,142.1,58.5,142.1,58.1z"/>
		<path fill="#31A3D8" d="M203.5,53.6c-0.2-0.5-0.5-0.7-1-0.7l-1.4,0l-1.4,0c-0.5,0-0.8,0.2-1,0.7l-6,14.8c-0.1,0.3-0.1,0.5,0,0.6
			c0.1,0.1,0.3,0.2,0.6,0.2l1.6,0l1.6,0c0.4,0,0.8-0.2,0.9-0.6c0.2-0.4,0.3-0.9,0.5-1.3c0.1-0.3,0.2-0.4,0.6-0.4l2.6,0l2.6,0
			c0.4,0,0.5,0.1,0.6,0.4l0.1,0.2c0.1,0.4,0.3,0.7,0.4,1.1c0.2,0.5,0.5,0.7,1,0.7l0.6,0l2.5,0c0.2,0,0.5,0,0.6-0.2
			c0.1-0.2,0.1-0.5,0-0.6L203.5,53.6z M199.7,62.6c0.5-1.2,0.9-2.5,1.4-3.7c0,0,0,0,0,0c0,0,0,0,0,0c0.5,1.2,0.9,2.4,1.3,3.6
			c0.1,0.2,0.1,0.3,0.1,0.3c0,0,0,0.1-0.3,0.1l-1.8,0c-0.2,0-0.3,0-0.5,0c-0.1,0-0.2,0-0.2-0.1C199.6,62.8,199.6,62.7,199.7,62.6z"
			/>
		<path fill="#31A3D8" d="M225.5,64.4l-1.5-0.6c-0.4-0.2-0.8-0.3-1.2-0.5c-0.5-0.2-0.7-0.1-1,0.2c0,0.1-0.1,0.1-0.1,0.2
			c-0.1,0.1-0.1,0.2-0.2,0.2c-0.8,0.9-1.9,1.4-3.1,1.4c-0.7,0-1.3-0.2-1.9-0.5c-1.5-0.8-2.2-2-2.2-3.7c0-1.3,0.5-2.3,1.5-3.1
			c1.2-1,2.7-1.3,4.2-0.7c0.7,0.3,1.3,0.7,1.8,1.4c0.2,0.3,0.4,0.4,0.6,0.4c0.1,0,0.2,0,0.4-0.1c0.9-0.4,1.8-0.8,2.7-1.2
			c0.2-0.1,0.4-0.3,0.4-0.4c0.1-0.2,0-0.4-0.1-0.6l-0.2-0.2c-0.3-0.4-0.5-0.8-0.9-1.1c-2.2-2.3-5-3.2-8.1-2.6
			c-2,0.4-3.7,1.4-5.1,3.1c-1.2,1.5-1.8,3.2-1.8,5.2c0,0.2,0,0.3,0.1,0.5c0,0.4,0.1,0.8,0.2,1.1c0.4,2,1.4,3.6,3,4.8
			c1.6,1.3,3.4,2,5.4,2c0.5,0,1,0,1.5-0.1c2.6-0.4,4.6-1.8,6-4c0.1-0.2,0.2-0.4,0.1-0.6C225.9,64.7,225.7,64.5,225.5,64.4z"/>
	</g>
	<path fill="#FFDD94" d="M68.8,40.3c0,0-1.2,12.3-4.4,16c-3.2,3.7-6.9,4.2-9.8,2.4C51.7,56.9,51.8,48.4,52,47c0.2-1.4-3-0.2-5.8,1.7
		c-2.8,1.9-6,4.1-6,4.1s-4-0.1-5-3.5c-0.9-3.4-0.7-6.6-0.7-6.6s-7.7,3.8-11.2,5.4c-3.4,1.6-10,2.9-11.1,1.2c-1-1.7-1.7-9.2-1.7-9.2
		l5.1-2l16.2-13.2l7.5,6l8.2-6.3l17.3,14.7L68.8,40.3z"/>
	<path fill="#FFFFFF" d="M12.6,50.3c-0.4-0.2,1.3,3.6,7.2,2.7c4.7-0.7,8.7-4.1,14.3-6.7c1.3-2.3,0.3-3.4,0.3-3.4s-7.4,4.4-11.6,5.9
		S14,51.1,12.6,50.3z"/>
	<g>
		<polygon fill="#CFA35F" points="43.8,26.5 38.1,30.2 35,26.9 27.4,33.4 31.8,37 		"/>
		<path fill="#CFA35F" d="M65.7,38c-0.7-0.3-1.5-0.7-2.2-1.1l-8.1-6.9L55,30.7c-1.6-1.3-3.3-2.6-4.7-3.7l-8.1,6.7l6.9,5.8l6.3-4.1
			c1.1,0.9,2.3,2,3.2,2.7c2.3,1.9,5.4,4.6,7.5,4.6c1.8,0,3.5,0.1,3.5,0.1l0.8-4L65.7,38z"/>
		<polygon fill="#CFA35F" points="31.9,37.1 32.1,37.3 32.2,37.1 		"/>
	</g>
	<g>
		<g>
			<g>
				<g>
					<path fill="#22345F" d="M31.6,53l-0.9-1.6c-0.7,0.4-1.3,0.7-1.9,1l1.1,1.6C30.5,53.8,31.1,53.4,31.6,53z"/>
				</g>
				<g>
					<path fill="#22345F" d="M46,59.3l1.6,1.6c0.5-0.5,0.9-1,1.4-1.5l-1.4-1.5C47,58.4,46.5,58.9,46,59.3z"/>
				</g>
				<g>
					<g>
						<path fill="#22345F" d="M39.7,0C17.8,0,0,17.9,0,40s17.8,40,39.7,40s39.7-17.9,39.7-40S61.7,0,39.7,0z M39.7,75.5
							C20.3,75.5,4.5,59.6,4.5,40c0-3.7,0.6-7.2,1.6-10.5C10.5,15.1,23.9,4.6,39.7,4.6C59.2,4.6,75,20.5,75,40
							c0,3.7-0.6,7.2-1.6,10.5C68.9,65,55.5,75.5,39.7,75.5z"/>
					</g>
				</g>
				<g>
					<path fill="#22345F" d="M41.2,14.7V9.5v0c-0.5,0-1,0-1.5,0c-0.4,0-0.9,0-1.3,0v0v5.2c0.4,0,0.9,0,1.3,0
						C40.2,14.6,40.7,14.7,41.2,14.7z"/>
				</g>
				<g>
					<path fill="#22345F" d="M58.5,23.1l3.7-3.7l0,0c-0.6-0.7-1.3-1.3-1.9-2l0,0l-3.7,3.7C57.3,21.7,57.9,22.4,58.5,23.1z"/>
				</g>
				<g>
					<path fill="#22345F" d="M21.1,23c0.6-0.7,1.3-1.3,2-2l-3.7-3.7l0,0c-0.7,0.6-1.3,1.3-2,2l0,0L21.1,23z"/>
				</g>
				<g>
					<path fill="#22345F" d="M28.7,17.2c0.8-0.4,1.7-0.8,2.5-1.1l-2-4.8l0,0c-0.9,0.3-1.7,0.7-2.5,1.1l0,0L28.7,17.2z"/>
				</g>
				<g>
					<path fill="#22345F" d="M68.2,29.3L68.2,29.3c-0.3-0.9-0.7-1.7-1.1-2.6l0,0l-4.8,2c0.4,0.8,0.8,1.7,1.1,2.6L68.2,29.3z"/>
				</g>
				<g>
					<path fill="#22345F" d="M52.4,12.2L52.4,12.2c-0.8-0.4-1.7-0.8-2.5-1.1l0,0L47.9,16c0.9,0.3,1.7,0.7,2.6,1L52.4,12.2z"/>
				</g>
				<g>
					<path fill="#22345F" d="M15.9,31.7c0.3-0.9,0.7-1.7,1-2.6l-4.8-2l0,0c-0.2,0.5-0.5,1.1-0.7,1.6c0,0,0,0,0,0
						c-0.1,0.2-0.1,0.4-0.2,0.6c0,0.1,0,0.1-0.1,0.2c0,0,0,0.1-0.1,0.1l0,0L15.9,31.7z"/>
				</g>
				<g>
					<path fill="#22345F" d="M45.9,36.9l1.2,1c0.4-0.3,0.9-0.6,1.5-1c-0.5-0.4-0.9-0.7-1.4-1.1C46.7,36.2,46.3,36.6,45.9,36.9z"/>
				</g>
				<g>
					<path fill="#22345F" d="M42.2,33.8l1.3,1.1c0.4-0.3,0.9-0.7,1.4-1c-0.5-0.4-0.9-0.7-1.4-1.1C43,33.1,42.6,33.5,42.2,33.8z"/>
				</g>
				<g>
					<g>
						<path fill="#22345F" d="M69.8,38.1L69.8,38.1c-2.9,0-3.1,0-4.9-1.2c-0.9-0.6-9.2-7.5-17.5-14.4c-1.3,1.1-4.8,4-8.2,6.8
							c0,0,0,0,0,0l0.1-0.1l-6.8-6.8c0,0-5.1,4.3-10,8.3l0,0c-3.7,3-7,5.8-7.5,6.1c-1.8,1.2-2,1.2-4.9,1.2v0H9.4H8.8v0h0V40
							c0,2.8,0.4,5.5,1,8c0,0,0,0,0,0c3.5,13.3,15.6,23.1,29.9,23.1c16.8,0,30.5-13.5,31-30.2l0,0c0-0.3,0-0.7,0-1v-1.9h-0.6H69.8z
							 M18.3,58.5c-0.3-0.4-0.6-0.8-0.9-1.1c0.4,0.1,0.9,0.2,1.3,0.2c2.6,0.2,6.1-0.8,9.6-2.6l-1.1-1.7c-1.8,0.8-3.2,1.2-5.4,1.5
							c-4,0.6-6.9-0.3-7.9-3.3c0.5,0.1,1,0.1,1.5,0.1c4.6,0,10.4-3.3,13.7-5.2l0.2-0.1c1.4-0.8,2.6-1.4,3.7-1.9
							c-0.3,0.8-0.5,1.7-0.5,2.6c0,3.4,2.4,6.2,5.6,6.9c-3.4,2.8-6.7,4.8-9.7,5.8C24.3,61.3,20.8,60.9,18.3,58.5L18.3,58.5z
							 M39.7,68.5c-1.6,0-3.2-0.1-4.8-0.4c2.2-0.4,4.5-1.2,6.7-2.4c1.8-1,3.3-2.1,4.7-3.4l-1.7-1.7c-1.1,1-2.4,1.9-4.8,3.1
							c-5.5,2.8-10.4,3.3-16.1-0.1c0,0,0.1,0,0.1,0c1.8,0,3.7-0.4,5.7-1.1c4.5-1.6,9.6-5.1,14.7-10c0.1-0.1,0.1-0.1,0.2-0.2l0,0
							c2.4-2.3,4.6-3.8,6.4-4.6c-0.8,1.3-1.2,2.8-1.2,4.4c0,4.9,3.9,8.8,8.8,8.8c0.2,0,0.4,0,0.6,0C54,65.5,47.2,68.5,39.7,68.5z
							 M63.7,55L63.7,55c-1.2,1.8-3.1,2.9-5.3,2.9c-0.6,0-1.2-0.1-1.8-0.3c-2.6-0.6-4.6-3-4.6-5.9c0-2,0.9-3.7,2.4-4.8
							c0.2-0.1,0.3-0.2,0.5-0.3c0.3-0.1,0.7-0.2,1-0.3c0.3-0.1,0.5-0.1,0.7-0.1c0.6,0,1.1,0.1,1.5,0.3v-0.8v-2.1v-0.3
							c0,0-0.1,0-0.1,0c-0.5-0.1-0.9-0.1-1.4-0.1v-0.1c-0.1,0-0.2,0-0.4,0.1c-0.1,0-0.3,0-0.4,0c-2.5,0-7.5,1-13.5,6.8
							c-0.8,0.7-1.7,1.1-2.8,1.1c-2.3,0-4.2-1.9-4.2-4.2c0-1.8,1.1-3.4,2.7-4c0.8-0.3,1.7-0.3,2.3,0v-2.9c0,0-0.1,0-0.1,0
							S40,40,39.6,40v0c-0.2,0-0.4,0-0.6,0c-0.5,0-1.4,0.1-2.6,0.4c-2.5,0.6-5.4,1.8-8.4,3.5L27.9,44c-3.1,1.8-10.3,5.9-13.8,4.7
							c-0.8-0.3-1.3-0.7-1.6-1.5c-0.5-1.8-0.8-3.7-0.9-5.6l0,0c0-0.2,0-0.4,0-0.6c2.5-0.1,3.2-0.5,5-1.7c0.8-0.6,4.4-3.5,8.2-6.6
							l0,0c2.7-2.3,5.5-4.6,7.5-6.3L34,28c-1,0.9-2.5,2.1-3.9,3.3c0.6,0.5,1,0.8,1.5,1.2c1.4-1,2.9-2.1,4-2.8l1.4,1.4l0.1-0.1l0,0
							c-2.3,1.9-6.5,5.3-6.4,5.3c0.5,0.5,1.1,0.9,1.6,1.3c0.2-0.1,11.8-9.2,15.1-11.5c0.5,0.4,1,0.8,1.5,1.3c0,0,0,0,0,0l0.4,0.3
							c-1,0.9-2.8,2.3-4.6,3.8c0.6,0.5,1,0.8,1.5,1.2c1.9-1.4,3.8-2.7,5-3.5c0.3,0.2,0.6,0.5,0.9,0.7l0.9,0.8
							c-1,0.9-2.8,2.4-4.6,3.8c0.6,0.5,1,0.8,1.5,1.2c1.9-1.3,3.9-2.6,5-3.4l1.8,1.5l1.8,1.5c0,0,0,0,0,0c0,0,0.1,0,0.1,0.1
							c2.2,1.8,4,3.2,4.5,3.6c1.7,1.2,2.5,1.6,4.6,1.7C67.8,46.1,66.3,50.9,63.7,55z"/>
					</g>
				</g>
				<g>
					<path fill="#22345F" d="M27.9,33.1c-0.1,0.1-0.3,0.2-0.4,0.3c0.4,0.4,0.9,0.7,1.3,1.1c0.1-0.1,0.3-0.2,0.4-0.3
						c0.3-0.2,0.6-0.5,1-0.7c-0.5-0.4-0.9-0.7-1.4-1.1C28.5,32.6,28.2,32.9,27.9,33.1z"/>
				</g>
			</g>
		</g>
		<path fill="#22345F" d="M260,39.6l-0.4,0.1c-0.2,0-0.5,0.1-0.7,0.1c-0.1,0-0.2,0-0.2,0c-1.2,0-1.9-0.4-2.4-1.2
			c-0.6-1.1-1.2-2.3-1.9-3.5l-0.1-0.1c-0.2-0.4-0.5-0.9-0.7-1.3c3.3-1.7,4.9-4.5,5-8.7c0-5-3.5-8.7-8.6-9c-1.6-0.1-3.3-0.1-4.5-0.1
			c-0.6,0-1.2,0-1.7,0l-0.2,0c-0.6,0-1.3,0-1.9,0l-1.9,0l-1.7,0v28.5h6.5v-9.9c0.4-0.1,0.7-0.1,1-0.1c1.6,0,2.2,1.4,2.7,2.6
			c0.3,0.7,0.6,1.4,1,2l0.3,0.5c0.3,0.6,0.6,1.1,0.9,1.7c1.4,2.5,3.4,3.7,6.3,3.7c0.9,0,2-0.1,3.2-0.4l0.3-0.1V40L260,39.6z
			 M251.9,25.2c0,2-0.9,3.3-2.3,3.5c-0.6,0.1-1.2,0.1-2,0.1c-0.5,0-1.1,0-1.6,0l-0.1,0c-0.5,0-1,0-1.5,0v-7.2c0.5,0,1,0,1.5,0.1
			l0.1,0c1.2,0,2.5,0.1,3.7,0.2C251.1,22,251.9,23.3,251.9,25.2z"/>
		<path fill="#22345F" d="M167.1,44.5L167.1,44.5c1.2,0,2.4,0,3.6,0c1.7,0,3.2,0,4.5-0.1c5.4-0.4,8.6-3.8,8.6-9.5c0-2.9,0-6.4,0-9.9
			c-0.1-5.2-3.5-8.9-8.7-9c-1.5,0-3.1-0.1-5.2-0.1c-0.9,0-1.8,0-2.7,0c-0.9,0-1.8,0-2.7,0l-0.5,0c-0.1,0-0.3,0-0.4,0.1l-0.3,0.1
			v28.4l0.4,0C164.9,44.4,166,44.4,167.1,44.5z M169.9,38.7V21.5c0.5,0,1,0,1.5,0.1l0.1,0c1.2,0,2.5,0.1,3.7,0.2
			c1.1,0.2,1.9,1.1,1.9,2.4c0.2,2.8,0.2,5.6,0.2,8.1c0,1.1,0,2.4-0.2,3.6c-0.3,1.9-1.2,2.7-3.2,2.7c-0.5,0-1,0-1.5,0L169.9,38.7z"/>
		<path fill="#22345F" d="M114.1,34.9c0-1.1,0-2.3,0-3.4l0-1.3c0-0.6,0-1.1,0-1.7c0-1.2,0-2.4,0-3.6c-0.1-4.4-2.4-7.6-6.6-8.9
			c-2.4-0.8-4.8-0.9-7.3-0.2c-4.7,1.2-7.2,4.2-7.4,8.9c-0.2,3.3-0.1,6.7-0.1,10l0,1.1c0,2.2,0.7,4,1.9,5.5c2.2,2.5,5,3.8,8.3,3.8
			c1.1,0,2.4-0.2,3.7-0.5C111.5,43.5,114.1,40,114.1,34.9z M107.5,31.8c0,1.1,0,2.3,0,3.5c0,2.3-1.6,4-3.9,4c0,0-0.1,0-0.1,0
			c-2.3,0-4-1.6-4-3.8c-0.1-3.7-0.1-7.3,0-10.7c0.1-2.2,1.7-3.7,4.1-3.7l0.1,0c2.2,0,3.7,1.6,3.8,3.8c0,0.1,0,0.2,0,0.3l0,4.9l0,0.3
			L107.5,31.8z"/>
		<path fill="#22345F" d="M194.5,44.4c1.3,0.3,2.6,0.5,3.9,0.5c0.5,0,1,0,1.5-0.1c5.5-0.7,8.9-4.3,8.9-9.7c0-1.1,0-2.3,0-3.4
			c0-0.5,0-1,0-1.6c0-0.5,0-0.9,0-1.4l0-0.2c0-1.1,0-2.4,0-3.6c-0.1-4.5-2.5-7.8-6.8-9.2c-2.3-0.7-4.7-0.8-7.1-0.2
			c-4.7,1.2-7.2,4.3-7.4,9c-0.2,3.6-0.2,7.3,0,11C187.7,40.2,190.2,43.2,194.5,44.4z M202.2,31.7c0,1.2,0,2.4,0,3.6
			c0,2.3-1.7,4-3.9,4l0,0c-2.3,0-4-1.6-4.1-3.8c-0.1-3.7-0.1-7.3,0-10.8c0.1-2.2,1.7-3.6,4.1-3.6l0.1,0c2.2,0,3.8,1.6,3.8,3.8
			c0,1.2,0,2.5,0,3.8c0,0.6,0,1.1,0,1.7C202.2,30.7,202.2,31.2,202.2,31.7z"/>
		<path fill="#22345F" d="M218.5,44.1c1.4,0.6,3,0.9,4.6,0.9c0.6,0,1.3,0,2-0.1c5.5-0.8,8.8-4.4,8.9-9.7c0-1.1,0-2.3,0-3.4l0-1.6
			c0-0.5,0-1.1,0-1.6l0-0.1c0-1.1,0-2.3,0-3.5c-0.1-3.7-1.6-6.5-4.7-8.2c-2.8-1.6-5.9-1.9-9.2-1.1c-4.7,1.2-7.2,4.2-7.4,8.9
			c-0.2,4.1-0.1,8.1,0,11.1C212.8,39.6,214.8,42.5,218.5,44.1z M227.3,31.7c0,1.1,0,2.4,0,3.6c0,2.3-1.7,4-3.9,4l0,0
			c-2.3,0-4-1.6-4.1-3.8c-0.1-3.7-0.1-7.3,0-10.8c0.1-2.2,1.7-3.6,4.1-3.6l0.1,0c2.2,0,3.8,1.6,3.8,3.8c0,1.3,0,2.5,0,3.7l0,0.1
			c0,0.5,0,1,0,1.6C227.3,30.7,227.3,31.2,227.3,31.7z"/>
		<path fill="#22345F" d="M118.3,39.2c0.5,3,2.3,4.9,5.2,5.6c0.8,0.2,1.6,0.3,2.4,0.3c2.2,0,4.1-0.7,5.8-2.1
			c0.1,0.2,0.2,0.4,0.3,0.5c0.3,0.6,0.4,0.8,0.5,0.9l0.1,0.1l0.1,0c0.8,0.1,1.6,0.1,2.7,0.1c0.4,0,0.9,0,1.3,0l0.1,0
			c0.4,0,0.7,0,1.1,0l0.3,0V16h-6.4l0,6.2c0,4.6,0,9.4,0,14c0,1-0.3,1.6-1,2l-0.1,0c-0.6,0.4-1.2,0.7-1.9,0.9
			c-0.5,0.2-1,0.2-1.4,0.2c-2,0-2.6-1.6-2.8-2.9c-0.1-0.6-0.1-1.2-0.1-2c0-4.4,0-8.7,0-13.1l0-5.4H118l0,0.4c0,0.2,0,0.3,0,0.5
			l0,4.7c0,4.8,0,9.7,0,14.6C118,37.1,118.1,38.1,118.3,39.2z"/>
		<polygon fill="#22345F" points="140.8,21.6 147.6,21.6 147.6,44.4 154.2,44.4 154.2,21.5 160.9,21.5 160.9,16 140.8,16 		"/>
	</g>
</g>
</svg>
